<?xml version="1.0" encoding="UTF-8" standalone="no"?>
<!-- Created with Inkscape (http://www.inkscape.org/) -->

<svg
   xmlns:dc="http://purl.org/dc/elements/1.1/"
   xmlns:cc="http://creativecommons.org/ns#"
   xmlns:rdf="http://www.w3.org/1999/02/22-rdf-syntax-ns#"
   xmlns:svg="http://www.w3.org/2000/svg"
   xmlns="http://www.w3.org/2000/svg"
   xmlns:sodipodi="http://sodipodi.sourceforge.net/DTD/sodipodi-0.dtd"
   xmlns:inkscape="http://www.inkscape.org/namespaces/inkscape"
   width="24.310242mm"
   height="15.664532mm"
   viewBox="0 0 24.310242 15.664532"
   version="1.1"
   id="svg8"
   inkscape:version="0.92.3 (2405546, 2018-03-11)"
   sodipodi:docname="clasificacion-genero.svg">
  <defs
     id="defs2">
    <clipPath
       id="clipEmfPath1"
       clipPathUnits="userSpaceOnUse">
      <path
         id="path815"
         d="M 0,0 H 423.42044 V 303.9066 H 0 Z"
         inkscape:connector-curvature="0" />
    </clipPath>
    <pattern
       y="0"
       x="0"
       height="6"
       width="6"
       patternUnits="userSpaceOnUse"
       id="EMFhbasepattern" />
    <clipPath
       id="clipEmfPath1-4"
       clipPathUnits="userSpaceOnUse">
      <path
         id="path871"
         d="M 0,0 H 423.42044 V 303.9066 H 0 Z"
         inkscape:connector-curvature="0" />
    </clipPath>
    <pattern
       y="0"
       x="0"
       height="6"
       width="6"
       patternUnits="userSpaceOnUse"
       id="EMFhbasepattern-1" />
    <pattern
       y="0"
       x="0"
       height="6"
       width="6"
       patternUnits="userSpaceOnUse"
       id="EMFhbasepattern-8" />
    <pattern
       y="0"
       x="0"
       height="6"
       width="6"
       patternUnits="userSpaceOnUse"
       id="EMFhbasepattern-5" />
    <pattern
       y="0"
       x="0"
       height="6"
       width="6"
       patternUnits="userSpaceOnUse"
       id="EMFhbasepattern-4" />
    <pattern
       y="0"
       x="0"
       height="6"
       width="6"
       patternUnits="userSpaceOnUse"
       id="EMFhbasepattern-9" />
    <pattern
       y="0"
       x="0"
       height="6"
       width="6"
       patternUnits="userSpaceOnUse"
       id="EMFhbasepattern-86" />
    <pattern
       y="0"
       x="0"
       height="6"
       width="6"
       patternUnits="userSpaceOnUse"
       id="EMFhbasepattern-2" />
    <pattern
       y="0"
       x="0"
       height="6"
       width="6"
       patternUnits="userSpaceOnUse"
       id="EMFhbasepattern-3" />
    <pattern
       y="0"
       x="0"
       height="6"
       width="6"
       patternUnits="userSpaceOnUse"
       id="EMFhbasepattern-6" />
    <pattern
       y="0"
       x="0"
       height="6"
       width="6"
       patternUnits="userSpaceOnUse"
       id="EMFhbasepattern-0" />
    <filter
       inkscape:collect="always"
       style="color-interpolation-filters:sRGB"
       id="filter2674"
       x="-0.2784209"
       width="1.5568419"
       y="-0.71853042"
       height="2.4370608">
      <feGaussianBlur
         inkscape:collect="always"
         stdDeviation="1.2524447"
         id="feGaussianBlur2676" />
    </filter>
    <filter
       inkscape:collect="always"
       style="color-interpolation-filters:sRGB"
       id="filter1994"
       x="-0.16608378"
       width="1.3321676"
       y="-0.42861816"
       height="1.8572363">
      <feGaussianBlur
         inkscape:collect="always"
         stdDeviation="0.78237437"
         id="feGaussianBlur1996" />
    </filter>
    <pattern
       y="0"
       x="0"
       height="6"
       width="6"
       patternUnits="userSpaceOnUse"
       id="EMFhbasepattern-88" />
  </defs>
  <sodipodi:namedview
     id="base"
     pagecolor="#ffffff"
     bordercolor="#666666"
     borderopacity="1.0"
     inkscape:pageopacity="0.0"
     inkscape:pageshadow="2"
     inkscape:zoom="3.959798"
     inkscape:cx="87.401916"
     inkscape:cy="26.553886"
     inkscape:document-units="mm"
     inkscape:current-layer="text2735"
     showgrid="false"
     inkscape:window-width="1920"
     inkscape:window-height="1027"
     inkscape:window-x="1358"
     inkscape:window-y="-8"
     inkscape:window-maximized="1" />
  <metadata
     id="metadata5">
    <rdf:RDF>
      <cc:Work
         rdf:about="">
        <dc:format>image/svg+xml</dc:format>
        <dc:type
           rdf:resource="http://purl.org/dc/dcmitype/StillImage" />
        <dc:title />
      </cc:Work>
    </rdf:RDF>
  </metadata>
  <g
     inkscape:groupmode="layer"
     id="layer3"
     inkscape:label="Capa 3"
     style="opacity:0.07399998"
     transform="translate(-68.688263,-4.6071377)" />
  <g
     inkscape:label="Capa 1"
     inkscape:groupmode="layer"
     id="layer1"
     style="display:inline"
     transform="translate(-68.688263,-4.6071377)">
    <path
       style="display:inline;fill:#193352;fill-opacity:1;stroke:#193352;stroke-width:0.04601512px;stroke-linecap:butt;stroke-linejoin:miter;stroke-opacity:1"
       d="m 86.36747,15.110152 c -0.368981,0.798614 -0.538748,1.530821 -1.265414,2.448663 -3.152139,3.628659 -9.314844,2.699868 -11.83246,0.673794 l -0.312248,-1.298284 z"
       id="path1035"
       inkscape:connector-curvature="0"
       sodipodi:nodetypes="ccccc" />
    <path
       style="display:inline;fill:#e0625f;fill-opacity:1;stroke:#e0625f;stroke-width:0.04601512px;stroke-linecap:butt;stroke-linejoin:miter;stroke-opacity:1"
       d="m 70.393643,14.567831 5.653294,-3.714078 4.667247,-2.1199809 c -1.65011,-0.9470964 -5.44277,-1.5950966 -9.07155,0.032868 -2.421946,1.1664073 -3.995324,3.7156509 -1.248991,5.8011909 z"
       id="path1037"
       inkscape:connector-curvature="0"
       sodipodi:nodetypes="ccccc" />
    <path
       style="display:inline;fill:#9b4c4b;fill-opacity:1;stroke:#9b4c4b;stroke-width:0.04601512px;stroke-linecap:butt;stroke-linejoin:miter;stroke-opacity:1"
       d="m 80.714187,8.7337721 -0.164343,1.2818469 -4.404297,2.169287 -0.09861,-1.331153 z"
       id="path1039"
       inkscape:connector-curvature="0" />
    <path
       style="display:inline;fill:#932d2c;fill-opacity:1;stroke:#932d2c;stroke-width:0.04601512px;stroke-linecap:butt;stroke-linejoin:miter;stroke-opacity:1"
       d="M 70.886676,15.931854 70.393643,14.567831 69.1118,13.055908 c 0.411362,1.398047 1.012987,2.332321 1.774876,2.875946 z"
       id="path1043"
       inkscape:connector-curvature="0"
       sodipodi:nodetypes="cccc" />
    <path
       style="display:inline;fill:#9a302e;fill-opacity:1;stroke:#9a302e;stroke-width:0.04601512px;stroke-linecap:butt;stroke-linejoin:miter;stroke-opacity:1"
       d="m 70.886676,15.931854 5.258871,-3.746948 -0.09861,-1.331153 -5.653294,3.714078 z"
       id="path1041"
       inkscape:connector-curvature="0" />
    <path
       style="fill:#699ae1;fill-opacity:1;stroke:#699ae1;stroke-width:0.04601512px;stroke-linecap:butt;stroke-linejoin:miter;stroke-opacity:1"
       d="m 72.957348,16.934325 5.636854,-4.552212 4.683681,-2.5472631 C 92.34633,15.226939 80.385032,22.188343 72.957348,16.934325 Z"
       id="path1033"
       inkscape:connector-curvature="0"
       sodipodi:nodetypes="cccc" />
    <g
       aria-label="53% "
       style="font-style:normal;font-variant:normal;font-weight:400;font-size:0.49466267px;line-height:125%;font-family:'Times New Roman';text-align:start;letter-spacing:0px;word-spacing:0px;text-anchor:start;fill:#000000;fill-opacity:1;stroke:none;stroke-width:0.04601512"
       id="text1076">
      <path
         d="m 82.092679,12.574154 -0.08412,0.183342 h -0.44002 l -0.09598,0.196283 q 0.285797,0.04206 0.452961,0.212461 0.143438,0.146673 0.143438,0.345113 0,0.115397 -0.04745,0.213539 -0.04637,0.09814 -0.117555,0.167164 -0.07118,0.06902 -0.158536,0.111084 -0.124025,0.05932 -0.254521,0.05932 -0.131575,0 -0.19197,-0.04422 -0.05932,-0.0453 -0.05932,-0.09922 0,-0.0302 0.02481,-0.05284 0.02481,-0.02373 0.06255,-0.02373 0.02804,0 0.04853,0.0086 0.02157,0.0086 0.07226,0.04422 0.08089,0.05608 0.163929,0.05608 0.126182,0 0.221088,-0.09491 0.09598,-0.09598 0.09598,-0.232951 0,-0.132653 -0.0852,-0.246972 -0.0852,-0.115397 -0.235109,-0.177949 -0.117554,-0.04853 -0.320308,-0.05608 l 0.280404,-0.568359 z"
         style="font-style:normal;font-variant:normal;font-weight:400;font-size:2.20872593px;font-family:'Times New Roman';fill:#000000;stroke-width:0.04601512"
         id="path906" />
      <path
         d="m 82.350436,12.852402 q 0.06255,-0.147752 0.157458,-0.227559 0.09599,-0.08089 0.238344,-0.08089 0.175792,0 0.26962,0.114319 0.07118,0.0852 0.07118,0.182263 0,0.159615 -0.200597,0.330014 0.13481,0.05285 0.203833,0.150988 0.06902,0.09814 0.06902,0.230794 0,0.189813 -0.12079,0.328936 -0.157458,0.181185 -0.456197,0.181185 -0.147752,0 -0.201676,-0.03667 -0.05285,-0.03667 -0.05285,-0.07873 0,-0.03128 0.02481,-0.055 0.02588,-0.02373 0.06147,-0.02373 0.02696,0 0.055,0.0086 0.01833,0.0054 0.08304,0.0399 0.06471,0.03343 0.08951,0.0399 0.0399,0.01186 0.0852,0.01186 0.110005,0 0.190891,-0.0852 0.08196,-0.0852 0.08196,-0.201675 0,-0.0852 -0.03775,-0.166086 -0.02804,-0.06039 -0.06147,-0.09167 -0.04637,-0.04314 -0.12726,-0.07765 -0.08089,-0.03559 -0.165007,-0.03559 h -0.03451 v -0.03235 q 0.0852,-0.01078 0.1704,-0.06147 0.08628,-0.05069 0.125104,-0.121868 0.03883,-0.07118 0.03883,-0.15638 0,-0.111083 -0.0701,-0.179027 -0.06902,-0.06902 -0.172557,-0.06902 -0.167164,0 -0.279326,0.179028 z"
         style="font-style:normal;font-variant:normal;font-weight:400;font-size:2.20872593px;font-family:'Times New Roman';fill:#000000;stroke-width:0.04601512"
         id="path908" />
      <path
         d="m 84.84388,12.540721 -1.065537,1.556246 h -0.09599 l 1.065538,-1.556246 z m -1.108676,0 q 0.145594,0 0.225402,0.12079 0.08089,0.12079 0.08089,0.277169 0,0.187656 -0.09059,0.290111 -0.09059,0.102456 -0.217852,0.102456 -0.0852,0 -0.15638,-0.04637 -0.07118,-0.04745 -0.114319,-0.140202 -0.04206,-0.09275 -0.04206,-0.20599 0,-0.11324 0.04314,-0.208146 0.04314,-0.09599 0.117554,-0.142359 0.07549,-0.04745 0.154223,-0.04745 z m -0.0032,0.06039 q -0.055,0 -0.09814,0.06471 -0.04206,0.06471 -0.04206,0.271777 0,0.149909 0.02373,0.228638 0.01833,0.05932 0.05716,0.09167 0.02265,0.01941 0.05608,0.01941 0.05177,0 0.08843,-0.05608 0.05392,-0.08304 0.05392,-0.277169 0,-0.204911 -0.05285,-0.287954 -0.03451,-0.055 -0.08628,-0.055 z m 1.062302,0.70964 q 0.07657,0 0.152066,0.04853 0.07657,0.04853 0.117554,0.141281 0.04206,0.09275 0.04206,0.203833 0,0.190891 -0.09167,0.292268 -0.09167,0.100298 -0.216774,0.100298 -0.07873,0 -0.153144,-0.04853 -0.07334,-0.04853 -0.116476,-0.138046 -0.04206,-0.09059 -0.04206,-0.205989 0,-0.113241 0.04206,-0.207068 0.04314,-0.09383 0.116476,-0.140203 0.07442,-0.04637 0.149908,-0.04637 z m 0.0011,0.05716 q -0.05177,0 -0.08951,0.05824 -0.04853,0.07549 -0.04853,0.285797 0,0.193048 0.04961,0.26962 0.03667,0.055 0.08844,0.055 0.04961,0 0.08844,-0.05932 0.05177,-0.07873 0.05177,-0.270698 0,-0.202754 -0.05177,-0.28364 -0.03559,-0.055 -0.08844,-0.055 z"
         style="font-style:normal;font-variant:normal;font-weight:400;font-size:2.20872593px;font-family:'Times New Roman';fill:#000000;stroke-width:0.04601512"
         id="path910" />
    </g>
    <g
       aria-label="47% "
       style="font-style:normal;font-variant:normal;font-weight:400;font-size:0.49466267px;line-height:125%;font-family:'Times New Roman';text-align:start;letter-spacing:0px;word-spacing:0px;text-anchor:start;fill:#000000;fill-opacity:1;stroke:none;stroke-width:0.04601512"
       id="text1054">
      <path
         d="M 72.468404,9.0930292 V 9.2461733 H 72.27212 V 9.6322689 H 72.094171 V 9.2461733 H 71.475124 V 9.1081279 l 0.678364,-0.9684746 h 0.118632 v 0.9533759 z m -0.374233,0 V 8.3672125 l -0.513356,0.7258167 z"
         style="font-style:normal;font-variant:normal;font-weight:400;font-size:2.20872593px;font-family:'Times New Roman';fill:#000000;stroke-width:0.04601512"
         id="path913" />
      <path
         d="m 72.767143,8.1698508 h 0.784054 v 0.040982 l -0.487473,1.4516333 h -0.120789 l 0.436784,-1.3168234 h -0.402273 q -0.121868,0 -0.173635,0.029119 -0.09059,0.04961 -0.145595,0.153144 l -0.03128,-0.011863 z"
         style="font-style:normal;font-variant:normal;font-weight:400;font-size:2.20872593px;font-family:'Times New Roman';fill:#000000;stroke-width:0.04601512"
         id="path915" />
      <path
         d="m 75.150582,8.1364179 -1.065538,1.5562459 h -0.09598 l 1.065537,-1.5562459 z m -1.108677,0 q 0.145595,0 0.225402,0.1207897 0.08089,0.1207897 0.08089,0.2771692 0,0.1876554 -0.09059,0.290111 -0.09059,0.1024555 -0.217853,0.1024555 -0.0852,0 -0.156379,-0.046375 -0.07118,-0.047453 -0.114319,-0.1402023 -0.04206,-0.092749 -0.04206,-0.2059896 0,-0.1132403 0.04314,-0.2081465 0.04314,-0.095985 0.117555,-0.1423593 0.07549,-0.047453 0.154222,-0.047453 z m -0.0032,0.060395 q -0.055,0 -0.09814,0.064709 -0.04206,0.064709 -0.04206,0.2717768 0,0.1499087 0.02373,0.2286377 0.01833,0.059316 0.05716,0.091671 0.02265,0.019413 0.05608,0.019413 0.05177,0 0.08844,-0.056081 0.05392,-0.083043 0.05392,-0.2771692 0,-0.2049111 -0.05285,-0.287954 -0.03451,-0.055002 -0.08628,-0.055002 z m 1.062302,0.7096395 q 0.07657,0 0.152066,0.048532 0.07657,0.048532 0.117554,0.1412808 0.04206,0.092749 0.04206,0.2038326 0,0.1908909 -0.09167,0.292268 -0.09167,0.1002986 -0.216774,0.1002986 -0.07873,0 -0.153145,-0.048532 -0.07334,-0.048532 -0.116475,-0.1380454 -0.04206,-0.090592 -0.04206,-0.2059896 0,-0.1132403 0.04206,-0.207068 0.04314,-0.093828 0.116475,-0.1402024 0.07442,-0.046375 0.149909,-0.046375 z m 0.0011,0.057159 q -0.05177,0 -0.08951,0.058238 -0.04853,0.075494 -0.04853,0.2857971 0,0.1930478 0.04961,0.2696199 0.03667,0.055002 0.08844,0.055002 0.04961,0 0.08844,-0.059316 0.05177,-0.078729 0.05177,-0.2706983 0,-0.2027541 -0.05177,-0.2836401 -0.03559,-0.055003 -0.08844,-0.055003 z"
         style="font-style:normal;font-variant:normal;font-weight:400;font-size:2.20872593px;font-family:'Times New Roman';fill:#000000;stroke-width:0.04601512"
         id="path917" />
    </g>
    <text
       id="text1054-0"
       y="-853.60083"
       x="-487.70224"
       style="font-style:normal;font-variant:normal;font-weight:400;font-size:1.39247119px;line-height:125%;font-family:'Times New Roman';text-align:start;letter-spacing:0px;word-spacing:0px;text-anchor:start;fill:#000000;fill-opacity:1;stroke:none;stroke-width:0.12953217;filter:url(#filter1994)"
       xml:space="preserve"
       transform="matrix(0.35524086,0,0,0.08514386,245.77701,82.587142)"><tspan
         id="tspan1052-6"
         y="-853.60083"
         x="-487.70224"
         sodipodi:role="line"
         style="stroke-width:0.12953217"><tspan
           id="tspan1048-2"
           style="font-style:normal;font-variant:normal;font-weight:400;font-size:6.21754456px;font-family:'Times New Roman';fill:#000000;stroke-width:0.12953217"
           dy="0"
           dx="0">47%</tspan><tspan
           id="tspan1050-8"
           style="font-style:normal;font-variant:normal;font-weight:400;font-size:2.08061075px;font-family:'Times New Roman';fill:#000000;stroke-width:0.12953217"
           dy="0"
           dx="0"> </tspan></tspan></text>
    <text
       id="text1054-9"
       y="-837.68652"
       x="-439.03671"
       style="font-style:normal;font-variant:normal;font-weight:400;font-size:1.32970583px;line-height:125%;font-family:'Times New Roman';text-align:start;letter-spacing:0px;word-spacing:0px;text-anchor:start;fill:#000000;fill-opacity:1;stroke:none;stroke-width:0.12369354;filter:url(#filter2674)"
       xml:space="preserve"
       transform="matrix(0.3720091,0,0,0.08130601,244.79098,82.225593)"><tspan
         id="tspan1052-61"
         y="-837.68652"
         x="-439.03671"
         sodipodi:role="line"
         style="stroke-width:0.12369354"><tspan
           id="tspan1048-22"
           style="font-style:normal;font-variant:normal;font-weight:400;font-size:5.93729019px;font-family:'Times New Roman';fill:#000000;stroke-width:0.12369354"
           dy="0"
           dx="0">47%</tspan><tspan
           id="tspan1050-4"
           style="font-style:normal;font-variant:normal;font-weight:400;font-size:1.98682761px;font-family:'Times New Roman';fill:#000000;stroke-width:0.12369354"
           dy="0"
           dx="0"> </tspan></tspan></text>
  </g>
  <g
     inkscape:groupmode="layer"
     id="layer2"
     inkscape:label="Capa 2"
     transform="translate(-68.688263,-4.6071377)">
    <g
       aria-label="Clasificación por genero "
       style="font-style:normal;font-variant:normal;font-weight:400;font-size:1.32774222px;line-height:125%;font-family:'Times New Roman';text-align:start;letter-spacing:0px;word-spacing:0px;text-anchor:start;fill:#000000;fill-opacity:1;stroke:none;stroke-width:0.08266099"
       id="text2735">
      <path
         d="m 75.560973,4.841565 0.0201,0.2988716 h -0.0201 q -0.0402,-0.1342005 -0.114752,-0.1931968 -0.07455,-0.058996 -0.178934,-0.058996 -0.08752,0 -0.158188,0.044733 -0.07067,0.044085 -0.111509,0.1413319 -0.0402,0.097247 -0.0402,0.2418203 0,0.1192893 0.03825,0.2068114 0.03825,0.087522 0.114751,0.1342005 0.07715,0.046678 0.175692,0.046678 0.08558,0 0.151057,-0.036305 0.06548,-0.036954 0.143925,-0.1458701 l 0.0201,0.012966 q -0.06613,0.1173444 -0.154298,0.1718026 -0.08817,0.054458 -0.209405,0.054458 -0.218481,0 -0.338419,-0.1620779 -0.08947,-0.120586 -0.08947,-0.2839605 0,-0.1316073 0.059,-0.2418203 0.059,-0.110213 0.162078,-0.1705059 0.103729,-0.060941 0.22626,-0.060941 0.0953,0 0.188011,0.046678 0.02723,0.014263 0.0389,0.014263 0.0175,0 0.03047,-0.012318 0.01686,-0.017504 0.02399,-0.048623 z"
         style="font-style:normal;font-variant:normal;font-weight:400;font-size:1.32774222px;font-family:'Times New Roman';fill:#000000;stroke-width:0.08266099"
         id="path920" />
      <path
         d="m 75.894205,4.8188741 v 0.7876986 q 0,0.055755 0.0078,0.073907 0.0084,0.018153 0.02528,0.027877 0.01686,0.00908 0.06289,0.00908 v 0.023339 H 75.699063 V 5.717434 q 0.04084,0 0.05576,-0.00843 0.01491,-0.00843 0.02334,-0.027877 0.0084,-0.019449 0.0084,-0.074556 V 5.0671774 q 0,-0.1004883 -0.0045,-0.1231792 -0.0045,-0.023339 -0.01491,-0.031767 -0.0097,-0.00843 -0.02528,-0.00843 -0.01686,0 -0.04279,0.010373 l -0.01102,-0.022691 0.176989,-0.072611 z"
         style="font-style:normal;font-variant:normal;font-weight:400;font-size:1.32774222px;font-family:'Times New Roman';fill:#000000;stroke-width:0.08266099"
         id="path922" />
      <path
         d="m 76.394701,5.6551961 q -0.09141,0.070666 -0.114751,0.081687 -0.03501,0.016208 -0.07456,0.016208 -0.06159,0 -0.101785,-0.04214 -0.03955,-0.04214 -0.03955,-0.1108613 0,-0.043437 0.01945,-0.075204 0.02658,-0.044085 0.09206,-0.082984 0.06613,-0.038899 0.219129,-0.094654 v -0.023339 q 0,-0.088819 -0.02853,-0.1218826 -0.02788,-0.033064 -0.08169,-0.033064 -0.04084,0 -0.06483,0.022043 -0.02464,0.022043 -0.02464,0.050568 l 0.0013,0.037602 q 0,0.029822 -0.01556,0.04603 -0.01491,0.016208 -0.03955,0.016208 -0.02399,0 -0.03955,-0.016856 -0.01491,-0.016856 -0.01491,-0.04603 0,-0.055755 0.05705,-0.1024332 0.05705,-0.046679 0.160133,-0.046679 0.07909,0 0.129662,0.026581 0.03825,0.020098 0.0564,0.062886 0.01167,0.027877 0.01167,0.1141029 v 0.2016249 q 0,0.084929 0.0032,0.1043782 0.0032,0.018801 0.01037,0.025284 0.0078,0.00648 0.0175,0.00648 0.01037,0 0.01815,-0.00454 0.01362,-0.00843 0.05251,-0.047327 v 0.036306 q -0.07261,0.097247 -0.138739,0.097247 -0.03177,0 -0.05057,-0.022043 -0.0188,-0.022043 -0.01945,-0.075204 z m 0,-0.04214 V 5.3867951 q -0.09789,0.038899 -0.126421,0.055106 -0.05122,0.028526 -0.07326,0.059645 -0.02204,0.031119 -0.02204,0.068073 0,0.046678 0.02788,0.077797 0.02788,0.030471 0.06418,0.030471 0.04927,0 0.129662,-0.064831 z"
         style="font-style:normal;font-variant:normal;font-weight:400;font-size:1.32774222px;font-family:'Times New Roman';fill:#000000;stroke-width:0.08266099"
         id="path924" />
      <path
         d="m 77.030695,5.1294153 v 0.2022733 h -0.02139 q -0.02464,-0.095302 -0.06353,-0.1296624 -0.03825,-0.034361 -0.0979,-0.034361 -0.04538,0 -0.07326,0.023988 -0.02788,0.023988 -0.02788,0.053162 0,0.036306 0.02075,0.062238 0.0201,0.026581 0.08169,0.056403 l 0.09465,0.04603 q 0.131608,0.064183 0.131608,0.1692093 0,0.081039 -0.06159,0.1309589 -0.06094,0.049272 -0.136794,0.049272 -0.05446,0 -0.124476,-0.019449 -0.02139,-0.00648 -0.03501,-0.00648 -0.01491,0 -0.02334,0.016856 h -0.02139 V 5.5378517 h 0.02139 q 0.01815,0.090764 0.06937,0.1367937 0.05122,0.04603 0.114751,0.04603 0.04473,0 0.07261,-0.025932 0.02853,-0.026581 0.02853,-0.063535 0,-0.044733 -0.03177,-0.075204 -0.03112,-0.030471 -0.125124,-0.077149 -0.094,-0.046678 -0.123179,-0.084281 -0.02917,-0.036954 -0.02917,-0.093357 0,-0.073259 0.04992,-0.1225309 0.05057,-0.049272 0.13031,-0.049272 0.03501,0 0.08493,0.014911 0.03306,0.00972 0.04408,0.00972 0.01037,0 0.01621,-0.00454 0.0058,-0.00454 0.01361,-0.020098 z"
         style="font-style:normal;font-variant:normal;font-weight:400;font-size:1.32774222px;font-family:'Times New Roman';fill:#000000;stroke-width:0.08266099"
         id="path926" />
      <path
         d="m 77.314007,4.8188741 q 0.02723,0 0.04603,0.019449 0.01945,0.018801 0.01945,0.04603 0,0.027229 -0.01945,0.046679 -0.0188,0.019449 -0.04603,0.019449 -0.02723,0 -0.04668,-0.019449 -0.01945,-0.019449 -0.01945,-0.046679 0,-0.027229 0.0188,-0.04603 0.01945,-0.019449 0.04733,-0.019449 z m 0.05381,0.3105412 v 0.4771574 q 0,0.055755 0.0078,0.074556 0.0084,0.018153 0.02399,0.027229 0.01621,0.00908 0.05835,0.00908 v 0.023339 H 77.169434 V 5.717434 q 0.04344,0 0.05835,-0.00843 0.01491,-0.00843 0.02334,-0.027877 0.0091,-0.019449 0.0091,-0.074556 v -0.228854 q 0,-0.096598 -0.0058,-0.1251242 -0.0045,-0.020746 -0.01426,-0.028526 -0.0097,-0.00843 -0.02658,-0.00843 -0.01815,0 -0.04409,0.00972 l -0.0091,-0.023339 0.178934,-0.072611 z"
         style="font-style:normal;font-variant:normal;font-weight:400;font-size:1.32774222px;font-family:'Times New Roman';fill:#000000;stroke-width:0.08266099"
         id="path928" />
      <path
         d="m 77.763287,5.1935982 v 0.3902836 q 0,0.082984 0.01815,0.1050265 0.02399,0.028526 0.06418,0.028526 h 0.05381 v 0.023339 H 77.544806 V 5.717434 h 0.02658 q 0.02593,0 0.04733,-0.012966 0.02139,-0.012966 0.02917,-0.035009 0.0084,-0.022043 0.0084,-0.085577 V 5.1935982 h -0.1154 v -0.046679 h 0.1154 V 5.108021 q 0,-0.088819 0.02853,-0.1504082 0.02853,-0.06159 0.08687,-0.099192 0.059,-0.03825 0.132256,-0.03825 0.06807,0 0.125124,0.044085 0.0376,0.029174 0.0376,0.06548 0,0.019449 -0.01686,0.036954 -0.01686,0.016856 -0.03631,0.016856 -0.01491,0 -0.03177,-0.010373 -0.01621,-0.011021 -0.04019,-0.04603 -0.02399,-0.035657 -0.04409,-0.047975 -0.0201,-0.012318 -0.04473,-0.012318 -0.02982,0 -0.05057,0.016208 -0.02075,0.01556 -0.02982,0.049272 -0.0091,0.033064 -0.0091,0.1718026 v 0.042788 h 0.153002 v 0.046679 z"
         style="font-style:normal;font-variant:normal;font-weight:400;font-size:1.32774222px;font-family:'Times New Roman';fill:#000000;stroke-width:0.08266099"
         id="path930" />
      <path
         d="m 78.125693,4.8188741 q 0.02723,0 0.04603,0.019449 0.01945,0.018801 0.01945,0.04603 0,0.027229 -0.01945,0.046679 -0.0188,0.019449 -0.04603,0.019449 -0.02723,0 -0.04668,-0.019449 -0.01945,-0.019449 -0.01945,-0.046679 0,-0.027229 0.0188,-0.04603 0.01945,-0.019449 0.04733,-0.019449 z m 0.05381,0.3105412 v 0.4771574 q 0,0.055755 0.0078,0.074556 0.0084,0.018153 0.02399,0.027229 0.01621,0.00908 0.05835,0.00908 v 0.023339 H 77.98112 V 5.717434 q 0.04344,0 0.05835,-0.00843 0.01491,-0.00843 0.02334,-0.027877 0.0091,-0.019449 0.0091,-0.074556 v -0.228854 q 0,-0.096598 -0.0058,-0.1251242 -0.0045,-0.020746 -0.01426,-0.028526 -0.0097,-0.00843 -0.02658,-0.00843 -0.01815,0 -0.04408,0.00972 l -0.0091,-0.023339 0.178934,-0.072611 z"
         style="font-style:normal;font-variant:normal;font-weight:400;font-size:1.32774222px;font-family:'Times New Roman';fill:#000000;stroke-width:0.08266099"
         id="path932" />
      <path
         d="m 78.847264,5.5151608 q -0.02399,0.1173444 -0.094,0.1808789 -0.07002,0.062886 -0.154946,0.062886 -0.101137,0 -0.176341,-0.084929 -0.0752,-0.084929 -0.0752,-0.2295023 0,-0.1400353 0.08298,-0.2275574 0.08363,-0.087522 0.200328,-0.087522 0.08752,0 0.143925,0.046679 0.0564,0.04603 0.0564,0.09595 0,0.024636 -0.01621,0.040195 -0.01556,0.014911 -0.04408,0.014911 -0.03825,0 -0.0577,-0.024636 -0.01102,-0.013615 -0.01491,-0.051865 -0.0032,-0.03825 -0.02593,-0.058348 -0.02269,-0.019449 -0.06289,-0.019449 -0.06483,0 -0.104379,0.047975 -0.05251,0.063535 -0.05251,0.1679127 0,0.1063231 0.05186,0.1880104 0.05251,0.081039 0.141332,0.081039 0.06354,0 0.114103,-0.043437 0.03566,-0.029822 0.06937,-0.108268 z"
         style="font-style:normal;font-variant:normal;font-weight:400;font-size:1.32774222px;font-family:'Times New Roman';fill:#000000;stroke-width:0.08266099"
         id="path934" />
      <path
         d="m 79.268018,5.6551961 q -0.09141,0.070666 -0.114751,0.081687 -0.03501,0.016208 -0.07456,0.016208 -0.06159,0 -0.101784,-0.04214 -0.03955,-0.04214 -0.03955,-0.1108613 0,-0.043437 0.01945,-0.075204 0.02658,-0.044085 0.09206,-0.082984 0.06613,-0.038899 0.219129,-0.094654 v -0.023339 q 0,-0.088819 -0.02853,-0.1218826 -0.02788,-0.033064 -0.08169,-0.033064 -0.04084,0 -0.06483,0.022043 -0.02464,0.022043 -0.02464,0.050568 l 0.0013,0.037602 q 0,0.029822 -0.01556,0.04603 -0.01491,0.016208 -0.03955,0.016208 -0.02399,0 -0.03955,-0.016856 -0.01491,-0.016856 -0.01491,-0.04603 0,-0.055755 0.05705,-0.1024332 0.05705,-0.046679 0.160133,-0.046679 0.07909,0 0.129662,0.026581 0.03825,0.020098 0.0564,0.062886 0.01167,0.027877 0.01167,0.1141029 v 0.2016249 q 0,0.084929 0.0032,0.1043782 0.0032,0.018801 0.01037,0.025284 0.0078,0.00648 0.0175,0.00648 0.01037,0 0.01815,-0.00454 0.01361,-0.00843 0.05251,-0.047327 v 0.036306 q -0.07261,0.097247 -0.138739,0.097247 -0.03177,0 -0.05057,-0.022043 -0.0188,-0.022043 -0.01945,-0.075204 z m 0,-0.04214 V 5.3867951 q -0.09789,0.038899 -0.12642,0.055106 -0.05122,0.028526 -0.07326,0.059645 -0.02204,0.031119 -0.02204,0.068073 0,0.046678 0.02788,0.077797 0.02788,0.030471 0.06418,0.030471 0.04927,0 0.129662,-0.064831 z"
         style="font-style:normal;font-variant:normal;font-weight:400;font-size:1.32774222px;font-family:'Times New Roman';fill:#000000;stroke-width:0.08266099"
         id="path936" />
      <path
         d="m 80.024598,5.5151608 q -0.02399,0.1173444 -0.094,0.1808789 -0.07002,0.062886 -0.154947,0.062886 -0.101136,0 -0.17634,-0.084929 -0.0752,-0.084929 -0.0752,-0.2295023 0,-0.1400353 0.08298,-0.2275574 0.08363,-0.087522 0.200329,-0.087522 0.08752,0 0.143925,0.046679 0.0564,0.04603 0.0564,0.09595 0,0.024636 -0.01621,0.040195 -0.01556,0.014911 -0.04408,0.014911 -0.03825,0 -0.0577,-0.024636 -0.01102,-0.013615 -0.01491,-0.051865 -0.0032,-0.03825 -0.02593,-0.058348 -0.02269,-0.019449 -0.06289,-0.019449 -0.06483,0 -0.104378,0.047975 -0.05251,0.063535 -0.05251,0.1679127 0,0.1063231 0.05187,0.1880104 0.05251,0.081039 0.141332,0.081039 0.06353,0 0.114103,-0.043437 0.03566,-0.029822 0.06937,-0.108268 z"
         style="font-style:normal;font-variant:normal;font-weight:400;font-size:1.32774222px;font-family:'Times New Roman';fill:#000000;stroke-width:0.08266099"
         id="path938" />
      <path
         d="m 80.259935,4.8188741 q 0.02723,0 0.04603,0.019449 0.01945,0.018801 0.01945,0.04603 0,0.027229 -0.01945,0.046679 -0.0188,0.019449 -0.04603,0.019449 -0.02723,0 -0.04668,-0.019449 -0.01945,-0.019449 -0.01945,-0.046679 0,-0.027229 0.0188,-0.04603 0.01945,-0.019449 0.04733,-0.019449 z m 0.05381,0.3105412 v 0.4771574 q 0,0.055755 0.0078,0.074556 0.0084,0.018153 0.02399,0.027229 0.01621,0.00908 0.05835,0.00908 v 0.023339 H 80.115362 V 5.717434 q 0.04344,0 0.05835,-0.00843 0.01491,-0.00843 0.02334,-0.027877 0.0091,-0.019449 0.0091,-0.074556 v -0.228854 q 0,-0.096598 -0.0058,-0.1251242 -0.0045,-0.020746 -0.01426,-0.028526 -0.0097,-0.00843 -0.02658,-0.00843 -0.01815,0 -0.04408,0.00972 l -0.0091,-0.023339 0.178934,-0.072611 z"
         style="font-style:normal;font-variant:normal;font-weight:400;font-size:1.32774222px;font-family:'Times New Roman';fill:#000000;stroke-width:0.08266099"
         id="path940" />
      <path
         d="m 80.767563,5.1294153 q 0.134849,0 0.216537,0.1024333 0.06937,0.087522 0.06937,0.2009766 0,0.079742 -0.03825,0.1614296 -0.03825,0.081687 -0.105675,0.1231792 -0.06678,0.041492 -0.149112,0.041492 -0.1342,0 -0.213294,-0.1069714 -0.06678,-0.090115 -0.06678,-0.2022732 0,-0.081687 0.0402,-0.1620779 0.04084,-0.081039 0.106971,-0.1192894 0.06613,-0.038899 0.140035,-0.038899 z m -0.0201,0.04214 q -0.03436,0 -0.06937,0.020746 -0.03436,0.020098 -0.05575,0.071314 -0.02139,0.051217 -0.02139,0.1316073 0,0.1296623 0.05122,0.2236675 0.05187,0.094005 0.136145,0.094005 0.06289,0 0.10373,-0.051865 0.04084,-0.051865 0.04084,-0.1782857 0,-0.1581881 -0.06807,-0.2489517 -0.04603,-0.062238 -0.117344,-0.062238 z M 80.904357,4.83962 80.713105,5.0632875 h -0.02204 L 80.759135,4.83962 Z"
         style="font-style:normal;font-variant:normal;font-weight:400;font-size:1.32774222px;font-family:'Times New Roman';fill:#000000;stroke-width:0.08266099"
         id="path942" />
      <path
         d="m 81.31409,5.2551878 q 0.104378,-0.1257725 0.199032,-0.1257725 0.04862,0 0.08363,0.024636 0.03501,0.023988 0.05575,0.079742 0.01426,0.038899 0.01426,0.1192893 v 0.2534899 q 0,0.056403 0.0091,0.076501 0.0071,0.016208 0.02269,0.025284 0.01621,0.00908 0.059,0.00908 v 0.023339 H 81.46385 V 5.717434 h 0.01232 q 0.04149,0 0.0577,-0.012318 0.01686,-0.012966 0.02334,-0.037602 0.0026,-0.00972 0.0026,-0.060941 V 5.3634558 q 0,-0.081039 -0.02139,-0.1173444 -0.02075,-0.036954 -0.07067,-0.036954 -0.07715,0 -0.15365,0.084281 v 0.3131345 q 0,0.060293 0.0071,0.074556 0.0091,0.018801 0.02464,0.027877 0.01621,0.00843 0.06483,0.00843 v 0.023339 H 81.117003 V 5.717434 h 0.01297 q 0.04538,0 0.06094,-0.022691 0.01621,-0.023339 0.01621,-0.08817 v -0.220426 q 0,-0.1069714 -0.0052,-0.1303106 -0.0045,-0.023339 -0.01491,-0.031767 -0.0097,-0.00843 -0.02658,-0.00843 -0.01815,0 -0.04344,0.00972 l -0.0097,-0.023339 0.178934,-0.072611 h 0.02788 z"
         style="font-style:normal;font-variant:normal;font-weight:400;font-size:1.32774222px;font-family:'Times New Roman';fill:#000000;stroke-width:0.08266099"
         id="path944" />
      <path
         d="m 82.094009,5.2059161 0.182824,-0.073907 h 0.02464 v 0.1387387 q 0.04603,-0.078446 0.09206,-0.1095647 0.04668,-0.031767 0.09789,-0.031767 0.08947,0 0.149112,0.070018 0.07326,0.085577 0.07326,0.2230192 0,0.1536498 -0.08817,0.2541381 -0.07261,0.082336 -0.182824,0.082336 -0.04798,0 -0.08298,-0.013615 -0.02593,-0.00972 -0.05835,-0.038899 v 0.1808789 q 0,0.060941 0.0071,0.077149 0.0078,0.016856 0.02593,0.026581 0.0188,0.00972 0.06743,0.00972 v 0.023987 h -0.31119 v -0.023987 h 0.01621 q 0.03566,6.483e-4 0.06094,-0.013615 0.01232,-0.00713 0.0188,-0.023339 0.0071,-0.01556 0.0071,-0.080391 V 5.3219639 q 0,-0.0577 -0.0052,-0.073259 -0.0052,-0.01556 -0.01686,-0.023339 -0.01102,-0.00778 -0.03047,-0.00778 -0.01556,0 -0.03955,0.00908 z m 0.20746,0.1030816 v 0.2217225 q 0,0.071963 0.0058,0.094653 0.0091,0.037602 0.04409,0.066128 0.03566,0.028526 0.08947,0.028526 0.06483,0 0.105026,-0.050568 0.05251,-0.066128 0.05251,-0.1860654 0,-0.1361455 -0.05964,-0.2094047 -0.04149,-0.050568 -0.09854,-0.050568 -0.03112,0 -0.06159,0.01556 -0.02334,0.01167 -0.07715,0.070018 z"
         style="font-style:normal;font-variant:normal;font-weight:400;font-size:1.32774222px;font-family:'Times New Roman';fill:#000000;stroke-width:0.08266099"
         id="path946" />
      <path
         d="m 83.091112,5.1294153 q 0.134849,0 0.216536,0.1024333 0.06937,0.087522 0.06937,0.2009766 0,0.079742 -0.03825,0.1614296 -0.03825,0.081687 -0.105674,0.1231792 -0.06678,0.041492 -0.149112,0.041492 -0.134201,0 -0.213295,-0.1069714 -0.06678,-0.090115 -0.06678,-0.2022732 0,-0.081687 0.0402,-0.1620779 0.04084,-0.081039 0.106971,-0.1192894 0.06613,-0.038899 0.140035,-0.038899 z m -0.0201,0.04214 q -0.03436,0 -0.06937,0.020746 -0.03436,0.020098 -0.05575,0.071314 -0.02139,0.051217 -0.02139,0.1316073 0,0.1296623 0.05122,0.2236675 0.05187,0.094005 0.136145,0.094005 0.06289,0 0.10373,-0.051865 0.04084,-0.051865 0.04084,-0.1782857 0,-0.1581881 -0.06807,-0.2489517 -0.04603,-0.062238 -0.117344,-0.062238 z"
         style="font-style:normal;font-variant:normal;font-weight:400;font-size:1.32774222px;font-family:'Times New Roman';fill:#000000;stroke-width:0.08266099"
         id="path948" />
      <path
         d="m 83.638287,5.1294153 v 0.1335522 q 0.07456,-0.1335522 0.153002,-0.1335522 0.03566,0 0.059,0.022043 0.02334,0.021394 0.02334,0.04992 0,0.025284 -0.01686,0.042789 -0.01686,0.017504 -0.0402,0.017504 -0.02269,0 -0.05122,-0.022043 -0.02788,-0.022691 -0.04149,-0.022691 -0.01167,0 -0.02528,0.012966 -0.02917,0.026581 -0.06029,0.087522 v 0.2846088 q 0,0.049272 0.01232,0.074556 0.0084,0.017505 0.02982,0.029174 0.02139,0.01167 0.06159,0.01167 v 0.023339 H 83.437959 V 5.717434 q 0.04538,0 0.06743,-0.014263 0.01621,-0.010373 0.02269,-0.033064 0.0032,-0.011021 0.0032,-0.062886 V 5.3770704 q 0,-0.1037299 -0.0045,-0.1231792 -0.0039,-0.020098 -0.01556,-0.029174 -0.01102,-0.00908 -0.02788,-0.00908 -0.0201,0 -0.04538,0.00972 l -0.0065,-0.023339 0.179582,-0.072611 z"
         style="font-style:normal;font-variant:normal;font-weight:400;font-size:1.32774222px;font-family:'Times New Roman';fill:#000000;stroke-width:0.08266099"
         id="path950" />
      <path
         d="m 84.398756,5.5242371 q -0.05446,-0.026581 -0.08363,-0.073907 -0.02917,-0.047975 -0.02917,-0.1056748 0,-0.08817 0.06613,-0.1517049 0.06678,-0.063535 0.170506,-0.063535 0.08493,0 0.147167,0.041492 h 0.125772 q 0.02788,0 0.03242,0.00194 0.0045,0.0013 0.0065,0.00519 0.0039,0.00583 0.0039,0.020746 0,0.016856 -0.0032,0.023339 -0.0019,0.00324 -0.0071,0.00519 -0.0045,0.00194 -0.03242,0.00194 h -0.07715 q 0.03631,0.046678 0.03631,0.1192894 0,0.082984 -0.06353,0.1419802 -0.06354,0.058996 -0.170506,0.058996 -0.04409,0 -0.09011,-0.012966 -0.02853,0.024636 -0.0389,0.043437 -0.0097,0.018153 -0.0097,0.031119 0,0.011021 0.01037,0.021394 0.01102,0.010373 0.04214,0.014911 0.01815,0.00259 0.09076,0.00454 0.133552,0.00324 0.173099,0.00908 0.06029,0.00843 0.09595,0.044733 0.0363,0.036305 0.0363,0.089467 0,0.073259 -0.06872,0.137442 -0.101137,0.094654 -0.263863,0.094654 -0.125124,0 -0.211349,-0.056403 -0.04862,-0.032416 -0.04862,-0.067424 0,-0.01556 0.0071,-0.031119 0.01102,-0.023988 0.04538,-0.066776 0.0045,-0.00583 0.06613,-0.070018 -0.03371,-0.020098 -0.04798,-0.035657 -0.01361,-0.016208 -0.01361,-0.036306 0,-0.022691 0.01815,-0.053161 0.0188,-0.030471 0.08558,-0.086226 z m 0.112807,-0.3637028 q -0.04797,0 -0.08039,0.03825 -0.03242,0.03825 -0.03242,0.1173444 0,0.1024332 0.04409,0.1588363 0.03371,0.042789 0.08558,0.042789 0.04927,0 0.08104,-0.036954 0.03177,-0.036954 0.03177,-0.1160477 0,-0.1030816 -0.04473,-0.1614296 -0.03306,-0.042789 -0.08493,-0.042789 z m -0.11929,0.5802389 q -0.03047,0.033064 -0.04603,0.06159 -0.01556,0.028526 -0.01556,0.052513 0,0.031119 0.0376,0.054458 0.06483,0.040195 0.187362,0.040195 0.116696,0 0.171802,-0.041492 0.05575,-0.040844 0.05575,-0.087522 0,-0.033712 -0.03306,-0.047975 -0.03371,-0.014263 -0.133552,-0.016856 -0.14587,-0.00389 -0.224316,-0.014911 z"
         style="font-style:normal;font-variant:normal;font-weight:400;font-size:1.32774222px;font-family:'Times New Roman';fill:#000000;stroke-width:0.08266099"
         id="path952" />
      <path
         d="m 85.665558,5.2551878 q 0.104378,-0.1257725 0.199032,-0.1257725 0.04862,0 0.08363,0.024636 0.03501,0.023988 0.05576,0.079742 0.01426,0.038899 0.01426,0.1192893 v 0.2534899 q 0,0.056403 0.0091,0.076501 0.0071,0.016208 0.02269,0.025284 0.01621,0.00908 0.059,0.00908 v 0.023339 H 85.815318 V 5.717434 h 0.01232 q 0.04149,0 0.0577,-0.012318 0.01686,-0.012966 0.02334,-0.037602 0.0026,-0.00972 0.0026,-0.060941 V 5.3634558 q 0,-0.081039 -0.02139,-0.1173444 -0.02075,-0.036954 -0.07067,-0.036954 -0.07715,0 -0.15365,0.084281 v 0.3131345 q 0,0.060293 0.0071,0.074556 0.0091,0.018801 0.02464,0.027877 0.01621,0.00843 0.06483,0.00843 v 0.023339 H 85.468471 V 5.717434 h 0.01297 q 0.04538,0 0.06094,-0.022691 0.01621,-0.023339 0.01621,-0.08817 v -0.220426 q 0,-0.1069714 -0.0052,-0.1303106 -0.0045,-0.023339 -0.01491,-0.031767 -0.0097,-0.00843 -0.02658,-0.00843 -0.01815,0 -0.04344,0.00972 l -0.0097,-0.023339 0.178934,-0.072611 h 0.02788 z"
         style="font-style:normal;font-variant:normal;font-weight:400;font-size:1.32774222px;font-family:'Times New Roman';fill:#000000;stroke-width:0.08266099"
         id="path956" />
      <path
         d="m 86.25617,5.3705873 q -6.49e-4,0.1322555 0.06418,0.2074597 0.06483,0.075204 0.152354,0.075204 0.05835,0 0.101136,-0.031767 0.04344,-0.032416 0.07261,-0.110213 l 0.0201,0.012966 q -0.01362,0.088819 -0.07909,0.1620779 -0.06548,0.072611 -0.164023,0.072611 -0.106971,0 -0.183472,-0.082984 -0.07585,-0.083632 -0.07585,-0.2243158 0,-0.1523532 0.0778,-0.237282 0.07845,-0.085577 0.196438,-0.085577 0.09984,0 0.164023,0.066128 0.06418,0.065479 0.06418,0.1756925 z m 0,-0.037602 h 0.274884 q -0.0032,-0.057051 -0.01362,-0.080391 -0.01621,-0.036305 -0.04862,-0.057051 -0.03177,-0.020746 -0.06678,-0.020746 -0.05381,0 -0.0966,0.04214 -0.04214,0.041492 -0.04927,0.1160478 z"
         style="font-style:normal;font-variant:normal;font-weight:400;font-size:1.32774222px;font-family:'Times New Roman';fill:#000000;stroke-width:0.08266099"
         id="path958" />
      <path
         d="m 86.918744,5.1294153 v 0.1335522 q 0.07456,-0.1335522 0.153002,-0.1335522 0.03566,0 0.059,0.022043 0.02334,0.021394 0.02334,0.04992 0,0.025284 -0.01686,0.042789 -0.01686,0.017504 -0.04019,0.017504 -0.02269,0 -0.05122,-0.022043 -0.02788,-0.022691 -0.04149,-0.022691 -0.01167,0 -0.02528,0.012966 -0.02917,0.026581 -0.06029,0.087522 v 0.2846088 q 0,0.049272 0.01232,0.074556 0.0084,0.017505 0.02982,0.029174 0.0214,0.01167 0.06159,0.01167 v 0.023339 H 86.718416 V 5.717434 q 0.04538,0 0.06742,-0.014263 0.01621,-0.010373 0.02269,-0.033064 0.0032,-0.011021 0.0032,-0.062886 V 5.3770704 q 0,-0.1037299 -0.0045,-0.1231792 -0.0039,-0.020098 -0.01556,-0.029174 -0.01102,-0.00908 -0.02788,-0.00908 -0.0201,0 -0.04538,0.00972 l -0.0065,-0.023339 0.179582,-0.072611 z"
         style="font-style:normal;font-variant:normal;font-weight:400;font-size:1.32774222px;font-family:'Times New Roman';fill:#000000;stroke-width:0.08266099"
         id="path960" />
      <path
         d="m 87.478885,5.1294153 q 0.134849,0 0.216536,0.1024333 0.06937,0.087522 0.06937,0.2009766 0,0.079742 -0.03825,0.1614296 -0.03825,0.081687 -0.105674,0.1231792 -0.06678,0.041492 -0.149112,0.041492 -0.134201,0 -0.213295,-0.1069714 -0.06678,-0.090115 -0.06678,-0.2022732 0,-0.081687 0.0402,-0.1620779 0.04084,-0.081039 0.106971,-0.1192894 0.06613,-0.038899 0.140035,-0.038899 z m -0.0201,0.04214 q -0.03436,0 -0.06937,0.020746 -0.03436,0.020098 -0.05575,0.071314 -0.02139,0.051217 -0.02139,0.1316073 0,0.1296623 0.05122,0.2236675 0.05187,0.094005 0.136145,0.094005 0.06289,0 0.10373,-0.051865 0.04084,-0.051865 0.04084,-0.1782857 0,-0.1581881 -0.06807,-0.2489517 -0.04603,-0.062238 -0.117344,-0.062238 z"
         style="font-style:normal;font-variant:normal;font-weight:400;font-size:1.32774222px;font-family:'Times New Roman';fill:#000000;stroke-width:0.08266099"
         id="path962" />
      <path
         style="fill:none;"
         d="M 80.691065,5.0632875 80.904357,4.83962 h -0.145222 z"
         id="path974"
         inkscape:connector-curvature="0" />
      <g
         aria-label="é "
         style="font-style:normal;font-variant:normal;font-weight:400;font-size:1.30233133px;line-height:125%;font-family:'Times New Roman';text-align:start;letter-spacing:0px;word-spacing:0px;text-anchor:start;fill:#000000;fill-opacity:1;stroke:none;stroke-width:0.01001414"
         id="text985">
        <path
           d="m 84.988679,5.3585532 q -6.36e-4,0.1297245 0.06295,0.2034893 0.06359,0.073765 0.149438,0.073765 0.05723,0 0.0992,-0.031159 0.0426,-0.031795 0.07122,-0.1081037 l 0.01971,0.012718 q -0.01335,0.087119 -0.07758,0.158976 -0.06423,0.071221 -0.160884,0.071221 -0.104924,0 -0.179961,-0.081396 -0.0744,-0.082032 -0.0744,-0.2200228 0,-0.1494374 0.07631,-0.2327408 0.07694,-0.083939 0.192679,-0.083939 0.09793,0 0.160884,0.064862 0.06295,0.064226 0.06295,0.1723299 z m 0,-0.036882 h 0.269623 q -0.0032,-0.055959 -0.01335,-0.078852 -0.0159,-0.035611 -0.04769,-0.05596 -0.03116,-0.020349 -0.0655,-0.020349 -0.05278,0 -0.09475,0.041334 -0.04133,0.040698 -0.04833,0.1138268 z m 0.303326,-0.4839229 -0.187592,0.2193869 h -0.02162 l 0.06677,-0.2193869 z"
           style="font-style:normal;font-variant:normal;font-weight:400;font-size:1.30233133px;font-family:'Times New Roman';fill:#000000;stroke-width:0.01001414"
           id="path998" />
      </g>
    </g>
    <g
       aria-label="Masculino "
       style="font-style:normal;font-variant:normal;font-weight:700;font-size:0.84573615px;line-height:125%;font-family:'Times New Roman';text-align:start;letter-spacing:0px;word-spacing:0px;text-anchor:start;fill:#000000;fill-opacity:1;stroke:none;stroke-width:0.07867311"
       id="text2687">
      <path
         d="m 89.558541,14.077564 0.151968,-0.369183 h 0.227952 v 0.01528 h -0.01817 q -0.02478,0 -0.03964,0.0087 -0.01032,0.0058 -0.01652,0.01941 -0.0045,0.0099 -0.0045,0.05162 v 0.369184 q 0,0.04295 0.0045,0.05368 0.0045,0.01074 0.01858,0.019 0.01404,0.0078 0.03758,0.0078 h 0.01817 v 0.01528 h -0.292373 v -0.01528 h 0.01817 q 0.02478,0 0.03964,-0.0087 0.01032,-0.0058 0.01652,-0.01982 0.0045,-0.0099 0.0045,-0.05203 v -0.415022 l -0.214738,0.510828 h -0.0099 l -0.218041,-0.507112 v 0.394374 q 0,0.0413 0.0021,0.05079 0.0054,0.02065 0.02313,0.03386 0.01817,0.0128 0.05657,0.0128 v 0.01528 h -0.191612 v -0.01528 h 0.0058 q 0.01858,4.13e-4 0.03469,-0.0058 0.0161,-0.0066 0.02436,-0.01734 0.0083,-0.01074 0.0128,-0.03015 8.26e-4,-0.0045 8.26e-4,-0.04212 v -0.354317 q 0,-0.04254 -0.0045,-0.05286 -0.0045,-0.01074 -0.01858,-0.01858 -0.01404,-0.0083 -0.03758,-0.0083 h -0.01776 v -0.01528 h 0.228778 z"
         style="font-style:normal;font-variant:normal;font-weight:700;font-size:0.84573615px;font-family:'Times New Roman';fill:#000000;stroke-width:0.07867311"
         id="path870" />
      <path
         d="m 90.194908,14.211363 q -0.07062,0.06236 -0.126778,0.06236 -0.03304,0 -0.05492,-0.02147 -0.02189,-0.02189 -0.02189,-0.05451 0,-0.04419 0.03799,-0.07929 0.03799,-0.03551 0.165596,-0.09415 v -0.03882 q 0,-0.04377 -0.005,-0.05492 -0.0045,-0.01156 -0.01776,-0.01982 -0.01322,-0.0087 -0.02973,-0.0087 -0.02684,0 -0.04419,0.01197 -0.01074,0.0074 -0.01074,0.01735 0,0.0087 0.01156,0.02147 0.01569,0.01776 0.01569,0.03428 0,0.02024 -0.01528,0.03469 -0.01487,0.01404 -0.03923,0.01404 -0.02602,0 -0.04377,-0.01569 -0.01734,-0.01569 -0.01734,-0.03675 0,-0.02973 0.02354,-0.05657 0.02354,-0.02726 0.06566,-0.04171 0.04212,-0.01445 0.08755,-0.01445 0.05492,0 0.08672,0.02354 0.03221,0.02313 0.04171,0.05038 0.0058,0.01734 0.0058,0.0797 v 0.149903 q 0,0.02643 0.0021,0.03345 0.0021,0.0066 0.0062,0.0099 0.0041,0.0033 0.0095,0.0033 0.01074,0 0.02189,-0.01528 l 0.01239,0.0099 q -0.02065,0.03056 -0.04295,0.0446 -0.02189,0.01363 -0.04997,0.01363 -0.03304,0 -0.05162,-0.01528 -0.01858,-0.01569 -0.02271,-0.04708 z m 0,-0.03015 v -0.129256 q -0.04997,0.02932 -0.07433,0.06277 -0.0161,0.0223 -0.0161,0.04501 0,0.019 0.01363,0.03345 0.01032,0.01115 0.02891,0.01115 0.02065,0 0.0479,-0.02313 z"
         style="font-style:normal;font-variant:normal;font-weight:700;font-size:0.84573615px;font-family:'Times New Roman';fill:#000000;stroke-width:0.07867311"
         id="path872" />
      <path
         d="m 90.648748,13.871499 0.0062,0.131733 h -0.01404 q -0.02519,-0.05864 -0.05245,-0.08011 -0.02684,-0.02147 -0.05368,-0.02147 -0.01693,0 -0.02891,0.01156 -0.01198,0.01115 -0.01198,0.02602 0,0.01115 0.0083,0.02147 0.01321,0.01693 0.07392,0.05823 0.0607,0.04088 0.0797,0.06979 0.01941,0.02849 0.01941,0.06401 0,0.03221 -0.01611,0.06318 -0.01611,0.03097 -0.04543,0.04749 -0.02932,0.01652 -0.06483,0.01652 -0.02767,0 -0.07392,-0.01734 -0.01239,-0.0045 -0.01693,-0.0045 -0.01363,0 -0.02271,0.02065 h -0.01363 l -0.0066,-0.138754 h 0.01404 q 0.01858,0.05451 0.05079,0.08177 0.03262,0.02726 0.06153,0.02726 0.01982,0 0.03221,-0.01198 0.0128,-0.01239 0.0128,-0.02973 0,-0.01982 -0.01239,-0.03428 -0.01239,-0.01445 -0.05534,-0.04377 -0.06318,-0.04377 -0.08176,-0.0669 -0.02726,-0.03386 -0.02726,-0.07475 0,-0.0446 0.03056,-0.08053 0.03097,-0.03634 0.0892,-0.03634 0.03139,0 0.0607,0.01528 0.01115,0.0062 0.01817,0.0062 0.0074,0 0.01198,-0.0029 0.0045,-0.0033 0.01445,-0.01776 z"
         style="font-style:normal;font-variant:normal;font-weight:700;font-size:0.84573615px;font-family:'Times New Roman';fill:#000000;stroke-width:0.07867311"
         id="path874" />
      <path
         d="m 91.04849,14.168828 0.0128,0.0099 q -0.02725,0.05121 -0.06814,0.0764 -0.04047,0.02478 -0.08631,0.02478 -0.07722,0 -0.123474,-0.05823 -0.04625,-0.05823 -0.04625,-0.139992 0,-0.07888 0.04212,-0.138754 0.05079,-0.07227 0.139993,-0.07227 0.05988,0 0.09498,0.03015 0.03551,0.03015 0.03551,0.06731 0,0.02354 -0.01445,0.03758 -0.01404,0.01404 -0.03717,0.01404 -0.02436,0 -0.04047,-0.0161 -0.01569,-0.01611 -0.01941,-0.0574 -0.0025,-0.02602 -0.01198,-0.03634 -0.0095,-0.01032 -0.0223,-0.01032 -0.01982,0 -0.03386,0.02106 -0.02147,0.0318 -0.02147,0.09746 0,0.05451 0.01734,0.104478 0.01734,0.04955 0.04749,0.07392 0.02271,0.01776 0.05369,0.01776 0.02023,0 0.0384,-0.0095 0.01817,-0.0095 0.04295,-0.03593 z"
         style="font-style:normal;font-variant:normal;font-weight:700;font-size:0.84573615px;font-family:'Times New Roman';fill:#000000;stroke-width:0.07867311"
         id="path876" />
      <path
         d="m 91.481269,13.882236 v 0.302284 q 0,0.04419 0.0083,0.05534 0.0083,0.01074 0.03345,0.01363 v 0.01487 h -0.157337 v -0.05162 q -0.02767,0.03304 -0.05534,0.04832 -0.02767,0.01487 -0.06194,0.01487 -0.03262,0 -0.05823,-0.01982 -0.02519,-0.02023 -0.03386,-0.04708 -0.0087,-0.02684 -0.0087,-0.09374 v -0.153207 q 0,-0.04377 -0.0083,-0.05451 -0.0078,-0.01074 -0.03345,-0.01404 v -0.01528 h 0.157337 v 0.263879 q 0,0.0413 0.0037,0.05327 0.0041,0.01198 0.01239,0.01817 0.0087,0.0062 0.01982,0.0062 0.01487,0 0.02684,-0.0078 0.01652,-0.01074 0.03964,-0.04336 v -0.206479 q 0,-0.04377 -0.0083,-0.05451 -0.0078,-0.01074 -0.03345,-0.01404 v -0.01528 z"
         style="font-style:normal;font-variant:normal;font-weight:700;font-size:0.84573615px;font-family:'Times New Roman';fill:#000000;stroke-width:0.07867311"
         id="path878" />
      <path
         d="m 91.730282,13.708381 v 0.479856 q 0,0.04088 0.0095,0.05244 0.0095,0.01115 0.03717,0.0128 v 0.01487 h -0.208543 v -0.01487 q 0.0256,-8.26e-4 0.03799,-0.01487 0.0083,-0.0095 0.0083,-0.05038 v -0.399743 q 0,-0.04047 -0.0095,-0.05162 -0.0095,-0.01156 -0.03675,-0.01321 v -0.01528 z"
         style="font-style:normal;font-variant:normal;font-weight:700;font-size:0.84573615px;font-family:'Times New Roman';fill:#000000;stroke-width:0.07867311"
         id="path880" />
      <path
         d="m 91.906615,13.695166 q 0.02684,0 0.04542,0.019 0.01858,0.01858 0.01858,0.04501 0,0.02643 -0.019,0.04501 -0.01858,0.01858 -0.04501,0.01858 -0.02643,0 -0.04501,-0.01858 -0.01858,-0.01858 -0.01858,-0.04501 0,-0.02643 0.01858,-0.04501 0.01858,-0.019 0.04501,-0.019 z m 0.05781,0.18707 v 0.306001 q 0,0.04088 0.0095,0.05244 0.0095,0.01115 0.03717,0.0128 v 0.01487 H 91.80255 v -0.01487 q 0.0256,-8.26e-4 0.03799,-0.01487 0.0083,-0.0095 0.0083,-0.05038 v -0.225475 q 0,-0.04088 -0.0095,-0.05203 -0.0095,-0.01156 -0.03675,-0.01321 v -0.01528 z"
         style="font-style:normal;font-variant:normal;font-weight:700;font-size:0.84573615px;font-family:'Times New Roman';fill:#000000;stroke-width:0.07867311"
         id="path882" />
      <path
         d="m 92.206009,13.882236 v 0.04997 q 0.02973,-0.03221 0.05699,-0.04667 0.02725,-0.01487 0.05864,-0.01487 0.03758,0 0.06236,0.02106 0.02478,0.02065 0.03304,0.05162 0.0066,0.02354 0.0066,0.09044 v 0.150316 q 0,0.0446 0.0078,0.05575 0.0083,0.01074 0.03386,0.01363 v 0.01487 h -0.195329 v -0.01487 q 0.02189,-0.0029 0.03139,-0.01817 0.0066,-0.01032 0.0066,-0.05121 v -0.17179 q 0,-0.04749 -0.0037,-0.05988 -0.0037,-0.01239 -0.0128,-0.019 -0.0087,-0.007 -0.01941,-0.007 -0.03551,0 -0.06607,0.05079 v 0.206891 q 0,0.04336 0.0078,0.05492 0.0083,0.01156 0.03015,0.01445 v 0.01487 h -0.195329 v -0.01487 q 0.02437,-0.0025 0.03469,-0.01569 0.007,-0.0091 0.007,-0.05369 v -0.218041 q 0,-0.04377 -0.0083,-0.05451 -0.0078,-0.01074 -0.03345,-0.01404 v -0.01528 z"
         style="font-style:normal;font-variant:normal;font-weight:700;font-size:0.84573615px;font-family:'Times New Roman';fill:#000000;stroke-width:0.07867311"
         id="path884" />
      <path
         d="m 92.701144,13.870673 q 0.05038,0 0.09374,0.02602 0.04336,0.02602 0.06566,0.07392 0.02271,0.0479 0.02271,0.104891 0,0.08218 -0.04171,0.137514 -0.05038,0.0669 -0.139167,0.0669 -0.08713,0 -0.134211,-0.06112 -0.04708,-0.06112 -0.04708,-0.141645 0,-0.083 0.0479,-0.144535 0.04832,-0.06194 0.132146,-0.06194 z m 0.0017,0.02932 q -0.02106,0 -0.03634,0.0161 -0.01487,0.01569 -0.01982,0.06277 -0.0045,0.04666 -0.0045,0.130081 0,0.04419 0.0058,0.08259 0.0045,0.02932 0.01941,0.0446 0.01487,0.01528 0.03386,0.01528 0.01858,0 0.03097,-0.01032 0.0161,-0.01404 0.02147,-0.03923 0.0083,-0.03923 0.0083,-0.158576 0,-0.0702 -0.0078,-0.09622 -0.0078,-0.02643 -0.02313,-0.03841 -0.01074,-0.0087 -0.02808,-0.0087 z"
         style="font-style:normal;font-variant:normal;font-weight:700;font-size:0.84573615px;font-family:'Times New Roman';fill:#000000;stroke-width:0.07867311"
         id="path886" />
    </g>
    <g
       aria-label="Femenino "
       style="font-style:normal;font-variant:normal;font-weight:700;font-size:0.84573615px;line-height:125%;font-family:'Times New Roman';text-align:start;letter-spacing:0px;word-spacing:0px;text-anchor:start;fill:#000000;fill-opacity:1;stroke:none;stroke-width:0.07867311"
       id="text2709">
      <path
         d="m 89.367344,15.896181 v 0.230018 h 0.01611 q 0.03717,0 0.0607,-0.01115 0.02354,-0.01115 0.03964,-0.03758 0.01652,-0.02643 0.02147,-0.07144 h 0.01445 v 0.281224 h -0.01445 q -0.0078,-0.0797 -0.04295,-0.104891 -0.03469,-0.0256 -0.07888,-0.0256 h -0.01611 v 0.171378 q 0,0.04295 0.0045,0.05368 0.005,0.01074 0.01858,0.019 0.01404,0.0078 0.03758,0.0078 h 0.01858 v 0.01528 h -0.292786 v -0.01528 h 0.01858 q 0.02436,0 0.03923,-0.0087 0.01074,-0.0058 0.01652,-0.01982 0.0045,-0.0099 0.0045,-0.05203 v -0.368358 q 0,-0.04295 -0.0045,-0.05369 -0.0045,-0.01074 -0.01858,-0.01858 -0.01363,-0.0083 -0.03717,-0.0083 h -0.01858 v -0.01528 h 0.472423 v 0.16064 h -0.01693 q -0.0058,-0.05658 -0.02973,-0.08383 -0.02354,-0.02726 -0.06855,-0.0384 -0.02478,-0.0062 -0.09168,-0.0062 z"
         style="font-style:normal;font-variant:normal;font-weight:700;font-size:0.84573615px;font-family:'Times New Roman';fill:#000000;stroke-width:0.07867311"
         id="path889" />
      <path
         d="m 90.007428,16.217049 h -0.211847 q 0.0037,0.07681 0.04088,0.12141 0.02849,0.03428 0.06855,0.03428 0.02478,0 0.04501,-0.01363 0.02023,-0.01404 0.04336,-0.04997 l 0.01404,0.0091 q -0.03139,0.06401 -0.06938,0.09085 -0.03799,0.02643 -0.08796,0.02643 -0.0859,0 -0.130081,-0.06607 -0.03552,-0.05327 -0.03552,-0.132146 0,-0.09663 0.05203,-0.15362 0.05245,-0.0574 0.122648,-0.0574 0.05864,0 0.101588,0.04832 0.04336,0.0479 0.04666,0.14247 z m -0.101588,-0.02767 q 0,-0.06649 -0.0074,-0.09126 -0.007,-0.02478 -0.0223,-0.03758 -0.0087,-0.0074 -0.02313,-0.0074 -0.02147,0 -0.0351,0.02106 -0.02437,0.03675 -0.02437,0.100762 v 0.01445 z"
         style="font-style:normal;font-variant:normal;font-weight:700;font-size:0.84573615px;font-family:'Times New Roman';fill:#000000;stroke-width:0.07867311"
         id="path891" />
      <path
         d="m 90.215558,16.037826 v 0.05079 q 0.0318,-0.03469 0.05864,-0.04832 0.02725,-0.01404 0.05947,-0.01404 0.03717,0 0.06236,0.01734 0.02519,0.01734 0.03882,0.05286 0.03304,-0.03717 0.06318,-0.05368 0.03056,-0.01652 0.0636,-0.01652 0.04006,0 0.0636,0.01858 0.02395,0.01817 0.03304,0.04666 0.0095,0.02808 0.0095,0.09003 v 0.158162 q 0,0.0446 0.0078,0.05534 0.0083,0.01074 0.03386,0.01404 v 0.01487 h -0.199458 v -0.01487 q 0.02354,-0.0021 0.03469,-0.01817 0.0074,-0.01115 0.0074,-0.05121 v -0.166008 q 0,-0.05162 -0.0041,-0.06566 -0.0041,-0.01404 -0.01322,-0.02065 -0.0087,-0.007 -0.02065,-0.007 -0.01776,0 -0.03593,0.01322 -0.01817,0.0128 -0.03675,0.03882 v 0.207304 q 0,0.04171 0.007,0.05245 0.0095,0.01528 0.03634,0.01693 v 0.01487 h -0.199871 v -0.01487 q 0.0161,-8.26e-4 0.02519,-0.0078 0.0095,-0.0074 0.01239,-0.01734 0.0033,-0.01032 0.0033,-0.04419 v -0.166008 q 0,-0.05245 -0.0041,-0.06566 -0.0041,-0.01321 -0.01404,-0.02065 -0.0095,-0.0074 -0.02065,-0.0074 -0.01652,0 -0.03015,0.0087 -0.01941,0.0128 -0.0413,0.04377 v 0.207304 q 0,0.04088 0.0078,0.0541 0.0083,0.0128 0.03386,0.01528 v 0.01487 h -0.199045 v -0.01487 q 0.02436,-0.0025 0.03469,-0.01569 0.007,-0.0091 0.007,-0.05368 v -0.218041 q 0,-0.04377 -0.0083,-0.05451 -0.0078,-0.01074 -0.03345,-0.01404 v -0.01528 z"
         style="font-style:normal;font-variant:normal;font-weight:700;font-size:0.84573615px;font-family:'Times New Roman';fill:#000000;stroke-width:0.07867311"
         id="path893" />
      <path
         d="m 91.087724,16.217049 h -0.211847 q 0.0037,0.07681 0.04088,0.12141 0.02849,0.03428 0.06855,0.03428 0.02478,0 0.04501,-0.01363 0.02023,-0.01404 0.04336,-0.04997 l 0.01404,0.0091 q -0.03139,0.06401 -0.06938,0.09085 -0.03799,0.02643 -0.08796,0.02643 -0.08589,0 -0.130081,-0.06607 -0.03552,-0.05327 -0.03552,-0.132146 0,-0.09663 0.05203,-0.15362 0.05245,-0.0574 0.122648,-0.0574 0.05864,0 0.101588,0.04832 0.04336,0.0479 0.04666,0.14247 z m -0.101588,-0.02767 q 0,-0.06649 -0.0074,-0.09126 -0.007,-0.02478 -0.0223,-0.03758 -0.0087,-0.0074 -0.02312,-0.0074 -0.02147,0 -0.0351,0.02106 -0.02436,0.03675 -0.02436,0.100762 v 0.01445 z"
         style="font-style:normal;font-variant:normal;font-weight:700;font-size:0.84573615px;font-family:'Times New Roman';fill:#000000;stroke-width:0.07867311"
         id="path895" />
      <path
         d="m 91.293376,16.037826 v 0.04997 q 0.02973,-0.03221 0.05699,-0.04666 0.02726,-0.01487 0.05864,-0.01487 0.03758,0 0.06236,0.02106 0.02478,0.02065 0.03304,0.05162 0.0066,0.02354 0.0066,0.09044 v 0.150316 q 0,0.0446 0.0078,0.05575 0.0083,0.01074 0.03386,0.01363 v 0.01487 h -0.195328 v -0.01487 q 0.02189,-0.0029 0.03138,-0.01817 0.0066,-0.01032 0.0066,-0.05121 v -0.17179 q 0,-0.04749 -0.0037,-0.05988 -0.0037,-0.01239 -0.0128,-0.019 -0.0087,-0.007 -0.01941,-0.007 -0.03551,0 -0.06607,0.05079 v 0.206891 q 0,0.04336 0.0078,0.05492 0.0083,0.01156 0.03015,0.01445 v 0.01487 H 91.13604 v -0.01487 q 0.02436,-0.0025 0.03469,-0.01569 0.007,-0.0091 0.007,-0.05368 v -0.218041 q 0,-0.04377 -0.0083,-0.05451 -0.0078,-0.01074 -0.03345,-0.01404 v -0.01528 z"
         style="font-style:normal;font-variant:normal;font-weight:700;font-size:0.84573615px;font-family:'Times New Roman';fill:#000000;stroke-width:0.07867311"
         id="path897" />
      <path
         d="m 91.699313,15.850756 q 0.02684,0 0.04542,0.019 0.01858,0.01858 0.01858,0.04501 0,0.02643 -0.019,0.04501 -0.01858,0.01858 -0.04501,0.01858 -0.02643,0 -0.04501,-0.01858 -0.01858,-0.01858 -0.01858,-0.04501 0,-0.02643 0.01858,-0.04501 0.01858,-0.019 0.04501,-0.019 z m 0.05781,0.18707 v 0.306001 q 0,0.04088 0.0095,0.05245 0.0095,0.01115 0.03717,0.0128 v 0.01487 h -0.208543 v -0.01487 q 0.0256,-8.26e-4 0.03799,-0.01487 0.0083,-0.0095 0.0083,-0.05038 v -0.225475 q 0,-0.04088 -0.0095,-0.05203 -0.0095,-0.01156 -0.03675,-0.01322 v -0.01528 z"
         style="font-style:normal;font-variant:normal;font-weight:700;font-size:0.84573615px;font-family:'Times New Roman';fill:#000000;stroke-width:0.07867311"
         id="path899" />
      <path
         d="m 91.998707,16.037826 v 0.04997 q 0.02973,-0.03221 0.05699,-0.04666 0.02725,-0.01487 0.05864,-0.01487 0.03758,0 0.06236,0.02106 0.02478,0.02065 0.03304,0.05162 0.0066,0.02354 0.0066,0.09044 v 0.150316 q 0,0.0446 0.0078,0.05575 0.0083,0.01074 0.03386,0.01363 v 0.01487 h -0.195328 v -0.01487 q 0.02189,-0.0029 0.03138,-0.01817 0.0066,-0.01032 0.0066,-0.05121 v -0.17179 q 0,-0.04749 -0.0037,-0.05988 -0.0037,-0.01239 -0.0128,-0.019 -0.0087,-0.007 -0.01941,-0.007 -0.03551,0 -0.06607,0.05079 v 0.206891 q 0,0.04336 0.0078,0.05492 0.0083,0.01156 0.03015,0.01445 v 0.01487 h -0.195328 v -0.01487 q 0.02436,-0.0025 0.03469,-0.01569 0.007,-0.0091 0.007,-0.05368 v -0.218041 q 0,-0.04377 -0.0083,-0.05451 -0.0078,-0.01074 -0.03345,-0.01404 v -0.01528 z"
         style="font-style:normal;font-variant:normal;font-weight:700;font-size:0.84573615px;font-family:'Times New Roman';fill:#000000;stroke-width:0.07867311"
         id="path901" />
      <path
         d="m 92.493843,16.026263 q 0.05038,0 0.09374,0.02602 0.04336,0.02602 0.06566,0.07392 0.02271,0.0479 0.02271,0.104891 0,0.08218 -0.04171,0.137514 -0.05038,0.0669 -0.139166,0.0669 -0.08713,0 -0.134211,-0.06112 -0.04708,-0.06112 -0.04708,-0.141644 0,-0.08301 0.0479,-0.144535 0.04832,-0.06194 0.132147,-0.06194 z m 0.0017,0.02932 q -0.02106,0 -0.03634,0.01611 -0.01487,0.01569 -0.01982,0.06277 -0.0045,0.04666 -0.0045,0.130081 0,0.04419 0.0058,0.08259 0.0045,0.02932 0.01941,0.0446 0.01487,0.01528 0.03386,0.01528 0.01858,0 0.03097,-0.01032 0.0161,-0.01404 0.02147,-0.03923 0.0083,-0.03923 0.0083,-0.158576 0,-0.0702 -0.0078,-0.09622 -0.0078,-0.02643 -0.02312,-0.03841 -0.01074,-0.0087 -0.02808,-0.0087 z"
         style="font-style:normal;font-variant:normal;font-weight:700;font-size:0.84573615px;font-family:'Times New Roman';fill:#000000;stroke-width:0.07867311"
         id="path903" />
    </g>
    <rect
       style="fill:#699ae1;fill-opacity:1;fill-rule:evenodd;stroke-width:0.04601512"
       id="rect2875"
       width="0.84634954"
       height="0.60805696"
       x="87.91861"
       y="15.856688" />
    <rect
       style="fill:#e0625f;fill-opacity:1;fill-rule:evenodd;stroke-width:0.04601512"
       id="rect2875-0"
       width="0.84634954"
       height="0.60805696"
       x="87.91861"
       y="13.684093" />
  </g>
</svg>
